<svg xmlns="http://www.w3.org/2000/svg" width="17.342" height="18.441" viewBox="0 0 17.342 18.441">
  <g id="Group_12638" data-name="Group 12638" transform="translate(-0.158 -2.632)">
    <path id="Path_17234" data-name="Path 17234" d="M2.95-4.368V0H1.743V-2.862a3.669,3.669,0,0,1-.567.36,4.428,4.428,0,0,1-.687.264v-.979a2.9,2.9,0,0,0,.946-.472,1.924,1.924,0,0,0,.527-.68Z" transform="translate(0 7)" fill="#b4b4c9"/>
    <path id="Path_17235" data-name="Path 17235" d="M3.738,0H.158A2.242,2.242,0,0,1,.532-1,5.032,5.032,0,0,1,1.7-2.1a3.483,3.483,0,0,0,.671-.592.663.663,0,0,0,.146-.384.448.448,0,0,0-.145-.335.506.506,0,0,0-.365-.139.508.508,0,0,0-.374.144.879.879,0,0,0-.195.507L.246-3A1.9,1.9,0,0,1,.5-3.784a1.2,1.2,0,0,1,.529-.434,2.393,2.393,0,0,1,.945-.151,2.665,2.665,0,0,1,.98.144,1.192,1.192,0,0,1,.551.441,1.165,1.165,0,0,1,.2.667,1.365,1.365,0,0,1-.23.75,3.152,3.152,0,0,1-.836.785q-.36.249-.482.349t-.286.261H3.738Z" transform="translate(0 14)" fill="#b4b4c9"/>
    <path id="Path_17236" data-name="Path 17236" d="M1.4-3.053l-1.128-.2a1.416,1.416,0,0,1,.541-.826,1.919,1.919,0,0,1,1.132-.287,1.891,1.891,0,0,1,1.216.313.985.985,0,0,1,.375.788.88.88,0,0,1-.152.5,1.3,1.3,0,0,1-.46.4,1.355,1.355,0,0,1,.381.144.929.929,0,0,1,.333.347,1.05,1.05,0,0,1,.119.514,1.432,1.432,0,0,1-.2.719A1.315,1.315,0,0,1,3-.113a2.162,2.162,0,0,1-.97.186A2.515,2.515,0,0,1,1.1-.064a1.381,1.381,0,0,1-.557-.4,1.851,1.851,0,0,1-.335-.667L1.4-1.292a.928.928,0,0,0,.218.5A.528.528,0,0,0,2-.653a.518.518,0,0,0,.4-.176.67.67,0,0,0,.16-.469A.651.651,0,0,0,2.4-1.761a.545.545,0,0,0-.417-.164,1.508,1.508,0,0,0-.387.07l.062-.853a1.14,1.14,0,0,0,.155.015.545.545,0,0,0,.391-.149A.474.474,0,0,0,2.364-3.2a.424.424,0,0,0-.117-.313.435.435,0,0,0-.322-.117.473.473,0,0,0-.343.127A.773.773,0,0,0,1.4-3.053Z" transform="translate(0 21)" fill="#b4b4c9"/>
    <line id="Line_1527" data-name="Line 1527" x2="10" transform="translate(6.5 5.5)" fill="none" stroke="#b4b4c9" stroke-linecap="round" stroke-width="2"/>
    <line id="Line_1528" data-name="Line 1528" x2="10" transform="translate(6.5 12.5)" fill="none" stroke="#b4b4c9" stroke-linecap="round" stroke-width="2"/>
    <line id="Line_1529" data-name="Line 1529" x2="10" transform="translate(6.5 18.5)" fill="none" stroke="#b4b4c9" stroke-linecap="round" stroke-width="2"/>
  </g>
</svg>
