<svg xmlns="http://www.w3.org/2000/svg" width="440.341" height="390.381" viewBox="0 0 440.341 390.381">
  <path id="Path_17499" data-name="Path 17499" d="M107,234.944a22.433,22.433,0,0,0-31.724,0v.013a22.417,22.417,0,0,0,0,31.711c42.94,42.953,158.246,158.258,158.246,158.258S210.353,478.957,192.4,520.8a34.441,34.441,0,0,0,31.649,48.011h0a34.421,34.421,0,0,0,31.65-20.871c11.578-26.978,30.275-70.555,30.275-70.555L411.5,602.906a22.433,22.433,0,0,0,31.724,0v-.013a22.417,22.417,0,0,0,0-31.711C382.8,510.756,167.413,295.37,107,234.944Zm122.775,59.089-70.443-70.442h0a4.493,4.493,0,0,1,4.5-4.5H471.577a37.469,37.469,0,0,1,0,74.938H364.415L324.2,388.456,271.74,336l17.986-41.966Z" transform="translate(-68.706 -219.095)" fill="#b4b4c9" fill-rule="evenodd"/>
</svg>
